<?xml version="1.0" encoding="UTF-8" standalone="no"?><!DOCTYPE svg PUBLIC "-//W3C//DTD SVG 1.1//EN" "http://www.w3.org/Graphics/SVG/1.1/DTD/svg11.dtd"><svg width="100%" height="100%" viewBox="0 0 8334 8334" version="1.1" xmlns="http://www.w3.org/2000/svg" xmlns:xlink="http://www.w3.org/1999/xlink" xml:space="preserve" xmlns:serif="http://www.serif.com/" style="fill-rule:evenodd;clip-rule:evenodd;stroke-linejoin:round;stroke-miterlimit:2;"><g id="icon"><path d="M3183.66,4166.67c0,385.16 -312.236,697.396 -697.396,697.396c-385.161,0 -697.397,-312.236 -697.397,-697.396c-0,-385.161 312.236,-697.397 697.397,-697.397c385.16,-0 697.396,312.236 697.396,697.397" style="fill:#fff;fill-rule:nonzero;"/><path d="M2486.26,5081.67c-505.343,0 -915.001,-409.659 -915.001,-915.001c-0,-505.342 409.658,-915.001 915.001,-915.001c505.342,0 915,409.659 915,915.001c0,505.342 -409.658,915.001 -915,915.001m-0,-2152.66c-683.542,-0 -1237.66,554.118 -1237.66,1237.66c-0,683.535 554.118,1237.65 1237.66,1237.65c683.541,0 1237.66,-554.118 1237.66,-1237.65c0,-683.541 -554.118,-1237.66 -1237.66,-1237.66" style="fill:#fff;fill-rule:nonzero;"/><path d="M5149.67,4166.67c0,385.16 312.237,697.396 697.397,697.396c385.161,0 697.397,-312.236 697.397,-697.396c-0,-385.161 -312.236,-697.397 -697.397,-697.397c-385.16,-0 -697.397,312.236 -697.397,697.397" style="fill:#fff;fill-rule:nonzero;"/><path d="M4932.07,4166.67c-0,-505.343 409.658,-915.001 915.001,-915.001c505.342,-0 915,409.658 915,915.001c0,505.342 -409.658,915 -915,915c-505.343,0 -915.001,-409.658 -915.001,-915m-322.659,-0c-0,683.541 554.125,1237.66 1237.66,1237.66c683.541,0 1237.66,-554.118 1237.66,-1237.66c0,-683.542 -554.118,-1237.66 -1237.66,-1237.66c-683.535,-0 -1237.66,554.118 -1237.66,1237.66" style="fill:#fff;fill-rule:nonzero;"/><clipPath id="_clip1"><path d="M4609.41,3438.16l-898.586,-0l-0,926.104l898.586,-0l-0,-926.104Zm-178.241,456.283c0,146.082 -118.423,264.505 -264.505,264.505c-146.075,0 -264.498,-118.423 -264.498,-264.505c-0,-146.082 118.423,-264.505 264.498,-264.505c146.082,0 264.505,118.423 264.505,264.505Z"/></clipPath><g clip-path="url(#_clip1)"><path d="M4597.19,3894.44c0,237.768 -192.749,430.517 -430.516,430.517c-237.774,-0 -430.523,-192.749 -430.523,-430.517c-0,-237.767 192.749,-430.516 430.523,-430.516c237.767,-0 430.516,192.749 430.516,430.516Z" style="fill:#fff;"/></g><path d="M3341.05,3794.08c0,-0 291.645,-258.872 739.547,-239.176l-43.621,75.032c-148.283,60.164 -181.796,170.33 -173.626,298.656l49.47,230.354l-321.334,287.946" style="fill:#fff;fill-rule:nonzero;"/><path d="M4992.28,3794.08c-0,-0 -291.645,-258.872 -739.547,-239.176l178.431,141.515l53.484,198.022l-53.484,158.9l-23.696,93.918l334.376,299.633" style="fill:#fff;fill-rule:nonzero;"/></g></svg>